<?xml version="1.0" encoding="iso-8859-1"?>
<!-- Uploaded to: SVG Repo, www.svgrepo.com, Generator: SVG Repo Mixer Tools -->
<svg height="800px" width="800px" version="1.1" id="Layer_1" xmlns="http://www.w3.org/2000/svg" xmlns:xlink="http://www.w3.org/1999/xlink" 
	 viewBox="0 0 512 512" xml:space="preserve">
<polygon style="fill:#FE5F1A;" points="446.962,0 446.962,420.67 405.449,420.67 316.887,210.335 405.449,0 "/>
<polygon style="fill:#FE834D;" points="405.449,0 405.449,420.67 256,376.389 106.551,420.67 65.038,420.67 65.038,0 "/>
<path style="fill:#FEDC3D;" d="M257.506,271.233L372.238,420.67h33.211C405.449,338.64,339.359,272.041,257.506,271.233z"/>
<path style="fill:#FFC1A6;" d="M256,66.422v171.589c47.381,0,85.795-38.414,85.795-85.795S303.381,66.422,256,66.422z"/>
<path style="fill:#FFE777;" d="M257.506,271.233c63.499,1.041,114.732,67.54,114.732,149.438H106.551
	c0-82.54,66.909-149.449,149.449-149.449C256.498,271.222,257.007,271.222,257.506,271.233z"/>
<path style="fill:#FFDBCC;" d="M256,66.422c29.037,0,52.584,38.414,52.584,85.795S285.037,238.011,256,238.011
	c-47.381,0-85.795-38.414-85.795-85.795S208.619,66.422,256,66.422z"/>
<g>
	<path style="fill:#FEA680;" d="M256,185.269c-10.878,0-20.674-6.611-24.377-16.448c-1.615-4.292,0.555-9.08,4.847-10.695
		c4.293-1.612,9.08,0.555,10.695,4.847c1.281,3.404,4.831,5.692,8.834,5.692c4.002,0,7.553-2.287,8.834-5.693
		c1.615-4.292,6.41-6.458,10.696-4.845c4.291,1.616,6.461,6.404,4.845,10.696C276.673,178.66,266.877,185.269,256,185.269z"/>
	<path style="fill:#FEA680;" d="M439.213,470.487h-58.672c-4.586,0-8.303-3.716-8.303-8.303c0-4.586,3.716-8.303,8.303-8.303h58.672
		c4.586,0,8.303,3.716,8.303,8.303C447.516,466.77,443.799,470.487,439.213,470.487z"/>
	<path style="fill:#FEA680;" d="M347.33,470.487H72.787c-4.586,0-8.303-3.716-8.303-8.303c0-4.586,3.716-8.303,8.303-8.303H347.33
		c4.586,0,8.303,3.716,8.303,8.303C355.632,466.77,351.916,470.487,347.33,470.487z"/>
	<path style="fill:#FEA680;" d="M256,512H72.787c-4.586,0-8.303-3.716-8.303-8.303c0-4.586,3.716-8.303,8.303-8.303H256
		c4.586,0,8.303,3.716,8.303,8.303C264.303,508.284,260.586,512,256,512z"/>
</g>
</svg>